/* XPM */
static char *jhx-o-16_xpm[] = {
/* columns rows colors chars-per-pixel */
"16 16 33 1",
"O c #F1AA43",
": c #F1A434",
"0 c #F4BA65",
"+ c #EF981A",
"> c #FADDB4",
"% c #FDF3E5",
"; c #FDF0DD",
"2 c #F8D7A6",
", c #F8D49F",
"  c None",
"q c #F09C23",
"e c #F3AF4C",
"# c #F9DBAE",
"r c #FCEEDA",
"& c #F1A639",
"= c #F7CC8D",
"X c #FAE2BF",
"1 c #F2AD48",
"o c #FDF5E9",
"3 c #F5BD6C",
"$ c #FBE9CF",
"7 c #F09E29",
"4 c #F6C783",
"6 c #F6C47B",
"- c #F4B861",
"8 c #F7D19A",
"* c #F7CE94",
"@ c #EF991C",
"< c #F5BF72",
"5 c #FBE5C6",
"w c #F3B65D",
". c #F3B355",
"9 c #F3B04F",
/* pixels */
"     .X     o   ",
"   oO+@#  $OO   ",
"  %&++++*=@@@-  ",
" ;:+++++++++++= ",
" O+++++++++++++>",
" ;&+++,<.12++++3",
"  oO++X4-.5+++= ",
"   #++X;$$5++6  ",
"  ;7+:X4-.5++7% ",
"  O++8=49O*+++. ",
" 0+++-**q+O9&w+8",
"*+++++++++&q7&qw",
"4++++++e8+++++3 ",
" >q+++:o 9+++4  ",
"  r&+q$  r@@,   ",
"    0>    *>    "
};
